<svg height="32" id="svg2" overflow="visible" viewBox="0 0 25.6 25.6" width="32" xmlns="http://www.w3.org/2000/svg" fill-rule="evenodd" stroke-width=".501" stroke-linejoin="bevel"><script id="script3301"/><script id="script3299"/><defs id="defs4"><marker id="DefaultArrow2" markerHeight="1" markerWidth="1" orient="auto" overflow="visible" viewBox="0 0 1 1"><g id="g7" transform="scale(.00926)"><path d="M-9 54V-54L117 0z" id="path9"/></g></marker><marker id="DefaultArrow3" markerHeight="1" markerWidth="1" orient="auto" overflow="visible" viewBox="0 0 1 1"><g id="g12" transform="scale(.00926)"><path d="M-27 54L-9 0l-18-54L135 0z" id="path14"/></g></marker><marker id="DefaultArrow4" markerHeight="1" markerWidth="1" orient="auto" overflow="visible" viewBox="0 0 1 1"><g id="g17" transform="scale(.00926)"><path d="M-9 0v-45c0-6.708 11.808-11.58 18-9L117-9c3.916 1.631 9 4.758 9 9s-5.084 7.369-9 9L9 54c-6.192 2.58-18-2.292-18-9z" id="path19"/></g></marker><marker id="DefaultArrow5" markerHeight="1" markerWidth="1" orient="auto" overflow="visible" viewBox="0 0 1 1"><g id="g22" transform="scale(.00926)"><path d="M-54 0c0 29.807 24.193 54 54 54S54 29.807 54 0 29.807-54 0-54-54-29.807-54 0z" id="path24"/></g></marker><marker id="DefaultArrow6" markerHeight="1" markerWidth="1" orient="auto" overflow="visible" viewBox="0 0 1 1"><g id="g27" transform="scale(.00926)"><path d="M-63 0L0 63 63 0 0-63z" id="path29"/></g></marker><marker id="DefaultArrow7" markerHeight="1" markerWidth="1" orient="auto" overflow="visible" viewBox="0 0 1 1"><g id="g32" transform="scale(.00926)"><path d="M18-54h90L63 0l45 54H18L-36 0z" id="path34"/></g></marker><marker id="DefaultArrow8" markerHeight="1" markerWidth="1" orient="auto" overflow="visible" viewBox="0 0 1 1"><g id="g37" transform="scale(.00926)"><path d="M-36 0l54-54h36L18-18h9l36-36h36L63-18h9l36-36h36L90 0l54 54h-36L72 18h-9l36 36H63L27 18h-9l36 36H18z" id="path39"/></g></marker><marker id="DefaultArrow9" markerHeight="1" markerWidth="1" orient="auto" overflow="visible" viewBox="0 0 1 1"><g id="g42" transform="scale(.00926)"><path d="M0 45L-45 0 0-45 45 0zm0 18L-63 0 0-63 63 0z" id="path44"/></g></marker><filter color-interpolation-filters="sRGB" id="StainedFilter"><feBlend id="feBlend47" in="SourceGraphic" in2="BackgroundImage" mode="multiply" result="blend"/><feComposite id="feComposite49" in="blend" in2="SourceAlpha" operator="in" result="comp"/></filter><filter color-interpolation-filters="sRGB" id="BleachFilter"><feBlend id="feBlend52" in="SourceGraphic" in2="BackgroundImage" mode="screen" result="blend"/><feComposite id="feComposite54" in="blend" in2="SourceAlpha" operator="in" result="comp"/></filter><filter color-interpolation-filters="sRGB" id="InvertTransparencyBitmapFilter"><feComponentTransfer id="feComponentTransfer57"><feFuncR amplitude="1.055" exponent=".417" id="feFuncR59" offset="-.055" type="gamma"/><feFuncG amplitude="1.055" exponent=".417" id="feFuncG61" offset="-.055" type="gamma"/><feFuncB amplitude="1.055" exponent=".417" id="feFuncB63" offset="-.055" type="gamma"/></feComponentTransfer><feComponentTransfer id="feComponentTransfer65"><feFuncR id="feFuncR67" intercept="1" slope="-1" type="linear"/><feFuncG id="feFuncG69" intercept="1" slope="-1" type="linear"/><feFuncB id="feFuncB71" intercept="1" slope="-1" type="linear"/><feFuncA id="feFuncA73" type="linear"/></feComponentTransfer><feComponentTransfer id="feComponentTransfer75"><feFuncR exponent="2.4" id="feFuncR77" type="gamma"/><feFuncG exponent="2.4" id="feFuncG79" type="gamma"/><feFuncB exponent="2.4" id="feFuncB81" type="gamma"/></feComponentTransfer></filter><radialGradient cx="0" cy="0" gradientTransform="matrix(0 -1 .88605 0 172.174 122.358)" gradientUnits="userSpaceOnUse" id="RadialGradient" r="237.428"><stop id="stop84" offset="0" stop-color="#473600"/><stop id="stop86" offset=".792" stop-color="#3d2f00"/><stop id="stop88" offset=".99" stop-color="#3a2c00"/><stop id="stop90" offset="1" stop-color="#3a2c00"/></radialGradient><radialGradient cx="0" cy="0" gradientTransform="matrix(0 -1 .88605 0 170.916 119.88)" gradientUnits="userSpaceOnUse" id="RadialGradient_1" r="237.428"><stop id="stop93" offset="0" stop-color="#553e00"/><stop id="stop95" offset=".792" stop-color="#403200"/><stop id="stop97" offset=".99" stop-color="#3b2b00"/><stop id="stop99" offset="1" stop-color="#3b2b00"/></radialGradient><radialGradient cx="0" cy="0" gradientTransform="matrix(0 -1 .88605 0 169.66 117.403)" gradientUnits="userSpaceOnUse" id="RadialGradient_2" r="237.428"><stop id="stop102" offset="0" stop-color="#634700"/><stop id="stop104" offset=".792" stop-color="#443400"/><stop id="stop106" offset=".99" stop-color="#3c2a00"/><stop id="stop108" offset="1" stop-color="#3c2a00"/></radialGradient><radialGradient cx="0" cy="0" gradientTransform="matrix(0 -1 .88605 0 168.403 114.925)" gradientUnits="userSpaceOnUse" id="RadialGradient_3" r="237.428"><stop id="stop111" offset="0" stop-color="#724f00"/><stop id="stop113" offset=".792" stop-color="#473600"/><stop id="stop115" offset=".99" stop-color="#3c2900"/><stop id="stop117" offset="1" stop-color="#3c2900"/></radialGradient><radialGradient cx="0" cy="0" gradientTransform="matrix(0 -1 .88605 0 167.146 112.448)" gradientUnits="userSpaceOnUse" id="RadialGradient_4" r="237.428"><stop id="stop120" offset="0" stop-color="#805800"/><stop id="stop122" offset=".792" stop-color="#4b3800"/><stop id="stop124" offset=".99" stop-color="#3d2800"/><stop id="stop126" offset="1" stop-color="#3d2800"/></radialGradient><radialGradient cx="0" cy="0" gradientTransform="matrix(0 -1 .88605 0 165.889 109.97)" gradientUnits="userSpaceOnUse" id="RadialGradient_5" r="237.428"><stop id="stop129" offset="0" stop-color="#8e6000"/><stop id="stop131" offset=".792" stop-color="#4e3b00"/><stop id="stop133" offset=".99" stop-color="#3e2700"/><stop id="stop135" offset="1" stop-color="#3e2700"/></radialGradient><radialGradient cx="0" cy="0" gradientTransform="matrix(0 -1 .88605 0 164.632 107.493)" gradientUnits="userSpaceOnUse" id="RadialGradient_6" r="237.428"><stop id="stop138" offset="0" stop-color="#9c6900"/><stop id="stop140" offset=".792" stop-color="#523d00"/><stop id="stop142" offset=".99" stop-color="#3f2600"/><stop id="stop144" offset="1" stop-color="#3f2600"/></radialGradient><linearGradient gradientTransform="translate(218.601 165.399)" gradientUnits="userSpaceOnUse" id="LinearGradient" x2="42.75" y2="36.75"><stop id="stop147" offset="0" stop-color="#5c5c5c"/><stop id="stop149" offset="1"/></linearGradient><linearGradient gradientTransform="translate(181.122 157.792)" gradientUnits="userSpaceOnUse" id="LinearGradient_1" x2="-9.672" y2="-141.858"><stop id="stop152" offset="0" stop-color="#fff"/><stop id="stop154" offset="1" stop-color="#cfd1d2"/></linearGradient><linearGradient gradientTransform="translate(259.851 172.899)" gradientUnits="userSpaceOnUse" id="LinearGradient_2" x2="69.75" y2="-189.75"><stop id="stop157" offset="0" stop-color="#b5b5b5"/><stop id="stop159" offset="1"/></linearGradient><linearGradient gradientTransform="translate(204.11 87.059)" gradientUnits="userSpaceOnUse" id="LinearGradient_3" x2="-51.527" y2="-64.41"><stop id="stop162" offset="0" stop-color="#df9000"/><stop id="stop164" offset=".73" stop-color="#7f5200"/><stop id="stop166" offset=".99" stop-color="#3f2600"/><stop id="stop168" offset="1" stop-color="#3f2600"/></linearGradient><linearGradient gradientTransform="translate(199.945 96.333)" gradientUnits="userSpaceOnUse" id="LinearGradient_4" x2="19.041" y2="85.19"><stop id="stop171" offset="0" stop-color="#ba7d00"/><stop id="stop173" offset=".792" stop-color="#7f5200"/><stop id="stop175" offset=".99" stop-color="#3f2600"/><stop id="stop177" offset="1" stop-color="#3f2600"/></linearGradient><linearGradient gradientTransform="translate(129.134 111.014)" gradientUnits="userSpaceOnUse" id="LinearGradient_5" x2="-1.007" y2="-63.536"><stop id="stop180" offset="0" stop-color="#df9000"/><stop id="stop182" offset=".792" stop-color="#7f5200"/><stop id="stop184" offset=".99" stop-color="#3f2600"/><stop id="stop186" offset="1" stop-color="#3f2600"/></linearGradient><linearGradient gradientTransform="translate(129.286 104.867)" gradientUnits="userSpaceOnUse" id="LinearGradient_6" x2="15.098" y2="58.375"><stop id="stop189" offset="0" stop-color="#df9000"/><stop id="stop191" offset=".792" stop-color="#7f5200"/><stop id="stop193" offset=".99" stop-color="#3f2600"/><stop id="stop195" offset="1" stop-color="#3f2600"/></linearGradient><radialGradient cx="0" cy="0" gradientTransform="matrix(.69736 -.71673 1.23192 1.19862 183.351 196.899)" gradientUnits="userSpaceOnUse" id="RadialGradient_7" r="38.717"><stop id="stop198" offset="0" stop-color="#6b4c29"/><stop id="stop200" offset="1" stop-color="#a57348"/></radialGradient><radialGradient cx="0" cy="0" gradientTransform="matrix(0 -1 .97394 0 134.346 314.993)" gradientUnits="userSpaceOnUse" id="RadialGradient_8" r="120.999"><stop id="stop203" offset="0" stop-color="#e0bf9e"/><stop id="stop205" offset=".017" stop-color="#e0bf9e"/><stop id="stop207" offset=".202" stop-color="#e6b891"/><stop id="stop209" offset="1" stop-color="#7b5d39"/></radialGradient><radialGradient cx="0" cy="0" gradientTransform="matrix(-.01429 -.9999 1.20614 -.01724 146.601 370.899)" gradientUnits="userSpaceOnUse" id="RadialGradient_9" r="87.054"><stop id="stop212" offset="0" stop-color="#9a9a9a"/><stop id="stop214" offset="1" stop-color="#313131"/></radialGradient><linearGradient gradientTransform="translate(213.351 257.649)" gradientUnits="userSpaceOnUse" id="LinearGradient_7" x2="-54" y2="-87"><stop id="stop217" offset="0" stop-color="#484848"/><stop id="stop219" offset="1"/></linearGradient><linearGradient gradientTransform="translate(133.101 343.149)" gradientUnits="userSpaceOnUse" id="LinearGradient_8" x2="10.5" y2="-85.5"><stop id="stop222" offset="0" stop-color="#8d8d8d"/><stop id="stop224" offset="1"/></linearGradient><linearGradient gradientTransform="translate(239.24 380.259)" gradientUnits="userSpaceOnUse" id="LinearGradient_9" x2="3.6" y2="-129"><stop id="stop227" offset="0" stop-color="#fff"/><stop id="stop229" offset="1"/></linearGradient><linearGradient gradientTransform="translate(115.007 352.336)" gradientUnits="userSpaceOnUse" id="LinearGradient_10" x2="108" y2="-33.75"><stop id="stop232" offset="0" stop-color="#fff"/><stop id="stop234" offset="1"/></linearGradient><linearGradient gradientTransform="translate(226.61 87.059)" gradientUnits="userSpaceOnUse" id="LinearGradient_11" x2="-51.527" y2="-64.41"><stop id="stop237" offset="0" stop-color="#df9000"/><stop id="stop239" offset=".73" stop-color="#7f5200"/><stop id="stop241" offset=".99" stop-color="#3f2600"/><stop id="stop243" offset="1" stop-color="#3f2600"/></linearGradient></defs><g id="g3696" transform="matrix(.6405 0 0 .64032 0 25.6)"><path d="M23.527-5.2a1.24 1.24 0 0 1-.238-.195 1.397 1.397 0 0 1-.366-.963c0-.483.016-2.07.016-4.04 0-1.244-.414-1.95-.764-2.259a.626.626 0 0 1 .341-1.09c3.014-.35 6-1.41 6-6.654 0-1.45-.5-2.619-1.319-3.532a.628.628 0 0 1-.114-.65c.098-.245.456-1.294.071-2.782l-.096-.29c-.47.04-1.48.282-3.125 1.425a.616.616 0 0 1-.526.088 12.798 12.798 0 0 0-6.836 0 .62.62 0 0 1-.526-.087c-1.65-1.144-2.66-1.386-3.126-1.426l-.093.29c-.383 1.488-.027 2.54.072 2.787a.626.626 0 0 1-.117.643c-.816.915-1.316 2.085-1.316 3.534 0 5.208 2.956 6.311 5.98 6.671a.625.625 0 0 1 .34 1.088c-.275.243-.59.743-.704 1.576a.625.625 0 0 1-.353.482c-.868.408-3.434 1.244-4.99-1.482a2.894 2.894 0 0 0-.45-.578l.294.417c.202.316.403.705.595 1.213-.037-.132.607 2.32 4.103 1.54a.623.623 0 0 1 .76.607c.003 1.201.02 2.186.02 2.51 0 .31-.1.69-.42 1.009l-.14.117c-.33.225-.733.28-1.16.2l-.086-.024c-5.95-2.034-10.23-7.799-10.23-14.578 0-8.458 6.683-15.347 14.961-15.347 8.277 0 14.974 6.887 14.974 15.347 0 6.78-4.278 12.537-10.225 14.578l-.081.022c-.411.081-.803.038-1.126-.167zm.853-1.054l.95-.37c4.917-2.143 8.38-7.15 8.38-13.009 0-7.799-6.166-14.098-13.725-14.098-7.557 0-13.712 6.298-13.712 14.098 0 5.858 3.464 10.871 8.382 13.009l.947.366h.175l.035-.1c0-.27-.01-.83-.017-1.627l-.021-.134c-3.311.402-4.46-1.72-4.726-2.359l-.05-.131C10.41-12.147 9.6-12.49 9.722-12.43l-.087-.05c-.281-.199-.51-.399-.652-.612-.427-.641-.022-1.138.414-1.308.322-.123.713-.111.728-.111 1.822.128 2.72 1.864 2.708 1.84.76 1.33 1.838 1.407 2.656 1.209l.436-.155.077-.365c.07-.232.153-.447.263-.665l-.238-.047c-2.966-.626-5.81-2.394-5.81-7.707 0-1.323.346-2.476.949-3.45l.456-.61-.063-.225c-.187-.77-.325-2.126.313-3.792a.626.626 0 0 1 .39-.37c.21-.07 1.312-.311 3.492.953l.77.492 1.56-.322a15.088 15.088 0 0 1 1.9-.133c.639.005 1.278.048 1.91.133l1.56.322.768-.49c2.178-1.266 3.284-1.023 3.495-.955a.62.62 0 0 1 .388.37c.641 1.665.503 3.02.315 3.794l-.064.223.457.61c.603.974.952 2.127.952 3.45 0 5.348-2.872 7.084-5.837 7.696l-.251.04.173.328c.212.535.338 1.183.338 1.94 0 1.968-.016 3.556-.016 4.04l.028.104.18-.001z" id="path3698"/><path d="M0-3.652v-32.676a3.654 3.654 0 0 1 3.65-3.652h32.668a3.655 3.655 0 0 1 3.65 3.652v32.676A3.654 3.654 0 0 1 36.319 0H3.65A3.652 3.652 0 0 1 0-3.652zm38.72 0v-32.676a2.407 2.407 0 0 0-2.402-2.403H3.65a2.406 2.406 0 0 0-2.401 2.403v32.676A2.405 2.405 0 0 0 3.65-1.25h32.668a2.406 2.406 0 0 0 2.402-2.402z" id="path3700"/></g></svg>