<svg fill-rule="evenodd" height="32" overflow="visible" stroke-linejoin="bevel" stroke-width=".501" viewBox="0 0 24 24" width="32" xmlns="http://www.w3.org/2000/svg"><g stroke-miterlimit="79.84" stroke-width=".5" font-family="Times New Roman" font-size="16"><path d="M0 21.805V2.192C0 .983.982 0 2.192 0h19.617c1.209 0 2.192.983 2.192 2.192v19.613c0 1.21-.983 2.192-2.192 2.192H2.192A2.193 2.193 0 0 1 0 21.805zm23.251 0V2.192c0-.794-.648-1.442-1.442-1.442H2.192C1.397.75.75 1.398.75 2.192v19.613c0 .795.647 1.442 1.442 1.442h19.617c.794 0 1.442-.647 1.442-1.442z"/><path d="M3.001 17.625V6.368c0-.206.168-.375.375-.375h17.251c.206 0 .375.169.375.375v11.257a.376.376 0 0 1-.375.375H3.376a.375.375 0 0 1-.375-.375zm17.251-.375V6.743H3.751V17.25h16.501z"/><path d="M11.754 14.156L3.128 6.652a.375.375 0 0 1 .493-.565l8.38 7.289 8.379-7.289a.375.375 0 0 1 .493.565l-8.626 7.504a.375.375 0 0 1-.493 0z"/><path d="M3.61 17.395a.186.186 0 0 1 .017-.264l6-5.276a.186.186 0 0 1 .264.017.186.186 0 0 1-.017.264l-6 5.276a.186.186 0 0 1-.264-.017zm16.704.183l-6-5.277a.186.186 0 0 1-.017-.264.186.186 0 0 1 .264-.017l6 5.277a.186.186 0 0 1 .017.264.186.186 0 0 1-.264.017z"/></g></svg>